<svg xmlns="http://www.w3.org/2000/svg" viewBox="0 0 200 50" width="200" height="50">
  <!-- Simple AI Perspectives logo -->
  <style>
    .text-light { fill: #e0e0e0; }
    .text-dark { fill: #121212; }
    .accent { fill: #0066cc; }
    .brain { fill: #3399ff; }
    @media (prefers-color-scheme: dark) {
      .text-dark { fill: #e0e0e0; }
      .text-light { fill: #121212; }
    }
  </style>
  
  <!-- Brain icon -->
  <path class="brain" d="M32,10 C42,10 50,18 50,28 C50,38 42,46 32,46 C22,46 14,38 14,28 C14,18 22,10 32,10 Z" />
  <path fill="#ffffff" d="M32,16 C39,16 44,21 44,28 C44,35 39,40 32,40 C25,40 20,35 20,28 C20,21 25,16 32,16 Z" />
  <path class="accent" d="M28,22 Q32,18 36,22 Q40,26 36,30 Q32,34 28,30 Q24,26 28,22 Z" />
  
  <!-- Text -->
  <text x="60" y="29" font-family="'Inter', sans-serif" font-size="18" font-weight="700" class="text-dark">AI</text>
  <text x="82" y="29" font-family="'Inter', sans-serif" font-size="18" font-weight="400" class="text-dark">Perspectives</text>
</svg>
